<svg width="97" height="31" viewBox="0 0 97 31" fill="none" xmlns="http://www.w3.org/2000/svg">
<path d="M42.077 19.4355H39.3981C38.7862 19.4355 38.3108 19.266 37.9718 18.927C37.6411 18.588 37.4757 18.1168 37.4757 17.5132V15.0327C37.4757 14.4208 37.6411 13.9496 37.9718 13.6188C38.3108 13.2798 38.7862 13.1103 39.3981 13.1103H40.4151C41.0269 13.1103 41.5023 13.2798 41.8413 13.6188C42.1803 13.9496 42.3498 14.4208 42.3498 15.0327V16.6078C42.3498 16.7566 42.2754 16.831 42.1266 16.831H38.8027C38.7118 16.831 38.6663 16.8724 38.6663 16.9551V17.4884C38.6663 18.092 38.9681 18.3937 39.5717 18.3937H42.077C42.2258 18.3937 42.3002 18.4682 42.3002 18.617V19.2371C42.3002 19.3694 42.2258 19.4355 42.077 19.4355ZM38.8027 15.9877H41.0228C41.1055 15.9877 41.1468 15.9463 41.1468 15.8637V15.0699C41.1468 14.7557 41.0765 14.5283 40.936 14.3878C40.7954 14.2389 40.568 14.1645 40.2538 14.1645H39.5717C39.2575 14.1645 39.0301 14.2389 38.8896 14.3878C38.749 14.5283 38.6787 14.7557 38.6787 15.0699V15.8637C38.6787 15.9463 38.7201 15.9877 38.8027 15.9877ZM44.7083 19.4355H43.927C43.7864 19.4355 43.7161 19.3653 43.7161 19.2247V13.3212C43.7161 13.1806 43.7864 13.1103 43.927 13.1103H44.7083C44.8489 13.1103 44.9192 13.1806 44.9192 13.3212V13.7676H44.9688C45.1672 13.3294 45.5848 13.1103 46.2214 13.1103H46.7671C47.3707 13.1103 47.8337 13.2757 48.1562 13.6064C48.4787 13.9371 48.6399 14.4126 48.6399 15.0327V19.2247C48.6399 19.3653 48.5655 19.4355 48.4166 19.4355H47.6353C47.4947 19.4355 47.4244 19.3653 47.4244 19.2247V15.0823C47.4244 14.4705 47.1227 14.1645 46.5191 14.1645H45.9362C45.2582 14.1645 44.9192 14.5159 44.9192 15.2187V19.2247C44.9192 19.3653 44.8489 19.4355 44.7083 19.4355ZM54.6005 19.4355H51.9216C51.3097 19.4355 50.8343 19.266 50.4953 18.927C50.1646 18.588 49.9992 18.1168 49.9992 17.5132V15.0327C49.9992 14.4208 50.1646 13.9496 50.4953 13.6188C50.8343 13.2798 51.3097 13.1103 51.9216 13.1103H52.9386C53.5504 13.1103 54.0259 13.2798 54.3649 13.6188C54.7039 13.9496 54.8734 14.4208 54.8734 15.0327V16.6078C54.8734 16.7566 54.7989 16.831 54.6501 16.831H51.3263C51.2353 16.831 51.1898 16.8724 51.1898 16.9551V17.4884C51.1898 18.092 51.4916 18.3937 52.0952 18.3937H54.6005C54.7493 18.3937 54.8237 18.4682 54.8237 18.617V19.2371C54.8237 19.3694 54.7493 19.4355 54.6005 19.4355ZM51.3263 15.9877H53.5463C53.629 15.9877 53.6703 15.9463 53.6703 15.8637V15.0699C53.6703 14.7557 53.6 14.5283 53.4595 14.3878C53.3189 14.2389 53.0915 14.1645 52.7773 14.1645H52.0952C51.781 14.1645 51.5536 14.2389 51.4131 14.3878C51.2725 14.5283 51.2022 14.7557 51.2022 15.0699V15.8637C51.2022 15.9463 51.2436 15.9877 51.3263 15.9877ZM57.2318 19.4355H56.4505C56.3099 19.4355 56.2396 19.3653 56.2396 19.2247V13.3212C56.2396 13.1806 56.3099 13.1103 56.4505 13.1103H57.2318C57.3724 13.1103 57.4427 13.1806 57.4427 13.3212V13.7925H57.4923C57.575 13.5857 57.7321 13.4204 57.9636 13.2964C58.2034 13.1723 58.4679 13.1103 58.7573 13.1103H59.2162C59.3568 13.1103 59.4271 13.1806 59.4271 13.3212V13.9661C59.4271 14.1232 59.3568 14.1893 59.2162 14.1645H58.4721C57.7858 14.1645 57.4427 14.5407 57.4427 15.2931V19.2247C57.4427 19.3653 57.3724 19.4355 57.2318 19.4355ZM62.7008 19.1255H62.1427C61.5474 19.1255 61.0885 18.9601 60.766 18.6294C60.4518 18.2904 60.2948 17.815 60.2948 17.2031V15.0327C60.2948 14.4208 60.4643 13.9496 60.8033 13.6188C61.1422 13.2798 61.6135 13.1103 62.2171 13.1103H64.9953C65.1441 13.1103 65.2185 13.1806 65.2185 13.3212V19.4604C65.2185 20.0639 65.0449 20.5311 64.6976 20.8618C64.3586 21.2008 63.8873 21.3703 63.2837 21.3703H60.9521C60.8115 21.3703 60.7412 21.3042 60.7412 21.1719V20.527C60.7412 20.3864 60.8115 20.3161 60.9521 20.3161H63.0977C63.7013 20.3161 64.0031 20.0102 64.0031 19.3983V18.4558H63.9535C63.7468 18.9022 63.3292 19.1255 62.7008 19.1255ZM64.0031 17.0171V14.2885C64.0031 14.2059 63.9576 14.1645 63.8666 14.1645H62.3908C61.8037 14.1645 61.5102 14.4705 61.5102 15.0823V17.1411C61.5102 17.753 61.8037 18.0589 62.3908 18.0589H62.9861C63.6641 18.0589 64.0031 17.7116 64.0031 17.0171ZM67.5089 21.4447H66.8516C66.711 21.4447 66.6407 21.3745 66.6407 21.2339V20.6014C66.6407 20.4525 66.711 20.3781 66.8516 20.3781H67.1368C67.6412 20.3781 67.9884 20.2789 68.1786 20.0805C68.377 19.882 68.5424 19.5554 68.6747 19.1007H68.1786C68.0546 19.1007 67.9678 19.0304 67.9182 18.8898L66.2686 13.3212C66.2356 13.1806 66.2893 13.1103 66.4299 13.1103H67.2608C67.3931 13.1103 67.4758 13.1806 67.5089 13.3212L68.8607 18.1829H68.9104L70.2622 13.3212C70.287 13.1806 70.3697 13.1103 70.5103 13.1103H71.304C71.4611 13.1103 71.5273 13.1847 71.5025 13.3336L69.8033 19.2991C69.6132 19.9937 69.3444 20.5228 68.9972 20.8866C68.6499 21.2587 68.1538 21.4447 67.5089 21.4447ZM77.7294 19.4355H76.6628C76.5388 19.4355 76.4561 19.3653 76.4148 19.2247L74.9885 13.3212C74.9554 13.1806 75.005 13.1103 75.1373 13.1103H76.0303C76.1791 13.1103 76.2618 13.1806 76.2783 13.3212L77.1837 18.0093H77.2705L78.362 13.3212C78.3868 13.1806 78.4653 13.1103 78.5976 13.1103H79.4162C79.5567 13.1103 79.6435 13.1806 79.6766 13.3212L80.7432 18.0093H80.83L81.7354 13.3212C81.7602 13.1806 81.8429 13.1103 81.9835 13.1103H82.8764C83.017 13.1103 83.0666 13.1806 83.0253 13.3212L81.599 19.2247C81.5742 19.3653 81.4915 19.4355 81.3509 19.4355H80.2843C80.152 19.4355 80.0693 19.3653 80.0363 19.2247L79.0441 14.6234H78.9573L77.9775 19.2247C77.9527 19.3653 77.87 19.4355 77.7294 19.4355ZM88.5618 19.4355H85.8828C85.271 19.4355 84.7956 19.266 84.4566 18.927C84.1258 18.588 83.9605 18.1168 83.9605 17.5132V15.0327C83.9605 14.4208 84.1258 13.9496 84.4566 13.6188C84.7956 13.2798 85.271 13.1103 85.8828 13.1103H86.8998C87.5117 13.1103 87.9871 13.2798 88.3261 13.6188C88.6651 13.9496 88.8346 14.4208 88.8346 15.0327V16.6078C88.8346 16.7566 88.7602 16.831 88.6114 16.831H85.2875C85.1966 16.831 85.1511 16.8724 85.1511 16.9551V17.4884C85.1511 18.092 85.4529 18.3937 86.0565 18.3937H88.5618C88.7106 18.3937 88.785 18.4682 88.785 18.617V19.2371C88.785 19.3694 88.7106 19.4355 88.5618 19.4355ZM85.2875 15.9877H87.5076C87.5902 15.9877 87.6316 15.9463 87.6316 15.8637V15.0699C87.6316 14.7557 87.5613 14.5283 87.4207 14.3878C87.2802 14.2389 87.0528 14.1645 86.7386 14.1645H86.0565C85.7423 14.1645 85.5149 14.2389 85.3743 14.3878C85.2338 14.5283 85.1635 14.7557 85.1635 15.0699V15.8637C85.1635 15.9463 85.2048 15.9877 85.2875 15.9877ZM91.5404 18.3813H93.0783C93.6736 18.3813 93.9712 18.0754 93.9712 17.4636V15.0327C93.9712 14.4208 93.6736 14.1149 93.0783 14.1149H92.4209C91.743 14.1149 91.404 14.4622 91.404 15.1567V18.2449C91.404 18.3359 91.4494 18.3813 91.5404 18.3813ZM90.2009 19.2247V10.9275C90.2009 10.7869 90.2712 10.7167 90.4118 10.7167H91.1931C91.3337 10.7167 91.404 10.7869 91.404 10.9275V13.7304H91.4536C91.6603 13.284 92.0778 13.0607 92.7062 13.0607H93.2519C93.8638 13.0607 94.3392 13.2302 94.6782 13.5692C95.0172 13.8999 95.1867 14.3671 95.1867 14.9707V17.5132C95.1867 18.1168 95.0172 18.588 94.6782 18.927C94.3392 19.266 93.8638 19.4355 93.2519 19.4355H90.4118C90.2712 19.4355 90.2009 19.3653 90.2009 19.2247Z" fill="#e8ecf2"/>
<ellipse cx="15.0508" cy="15.4375" rx="13.5078" ry="15.4375" fill="none"/>
<path d="M14.9462 0C11.9901 0 9.10042 0.905394 6.64253 2.60169C4.18465 4.29798 2.26896 6.70899 1.13772 9.52983C0.00647693 12.3507 -0.289509 15.4546 0.287193 18.4492C0.863895 21.4438 2.28738 24.1945 4.37764 26.3535C6.4679 28.5124 9.13105 29.9827 12.0303 30.5784C14.9296 31.174 17.9348 30.8683 20.6658 29.6999C23.3969 28.5315 25.7312 26.5528 27.3735 24.0141C29.0158 21.4754 29.8924 18.4908 29.8924 15.4375C29.8913 11.3436 28.3163 7.41758 25.5136 4.52272C22.7109 1.62786 18.9098 0.00107354 14.9462 0ZM14.2738 23.0449C13.4611 23.6459 12.4894 23.9746 11.49 23.9864C9.76286 23.9864 8.18081 23.0206 6.98103 21.2367C5.90195 19.5311 5.30329 17.5492 5.25195 15.5124C5.25234 15.474 5.26423 15.4366 5.28599 15.4054C5.30775 15.3743 5.33832 15.3508 5.37349 15.3383L6.54974 14.7936C6.57173 14.7827 6.59567 14.7766 6.62005 14.7758C6.64443 14.7749 6.66872 14.7793 6.69138 14.7886C6.71404 14.7979 6.73457 14.812 6.75169 14.8299C6.76882 14.8479 6.78217 14.8693 6.79088 14.8928C6.79088 14.9171 6.8144 14.9414 6.8144 14.9657C6.8144 16.9906 7.34175 18.9061 8.27883 20.3194C9.16493 21.6579 10.3177 22.3767 11.5174 22.3767C12.1666 22.3781 12.8015 22.1793 13.3406 21.8057C13.3801 21.7849 13.4253 21.7786 13.4687 21.7878C13.5122 21.797 13.5513 21.8212 13.5798 21.8563C13.819 22.1783 14.0601 22.4759 14.3228 22.7715C14.3388 22.8175 14.3427 22.867 14.3341 22.9151C14.3255 22.9631 14.3047 23.0079 14.2738 23.0449ZM22.9349 21.2367C21.7586 22.9963 20.1511 23.9864 18.4259 23.9864C16.7008 23.9864 15.1148 22.9963 13.917 21.2367C12.7897 19.552 12.1663 17.3206 12.1663 14.9596C12.1663 12.7809 13.3896 11.0699 14.9246 11.0699C16.4596 11.0699 17.6849 12.7809 17.6849 14.9596C17.712 16.8589 17.2743 18.7345 16.4126 20.4126C16.4023 20.4343 16.3878 20.4537 16.3699 20.4694C16.352 20.4851 16.3313 20.4969 16.3088 20.5039C16.2864 20.5109 16.2628 20.5131 16.2395 20.5103C16.2162 20.5075 16.1937 20.4997 16.1734 20.4875C16.1499 20.4875 16.1499 20.4612 16.1244 20.4369C15.9813 20.2627 15.8362 20.0906 15.7166 19.9165C15.5729 19.7022 15.4419 19.4791 15.3246 19.2483C15.3129 19.2208 15.3069 19.1912 15.3069 19.1612C15.3069 19.1312 15.3129 19.1016 15.3246 19.0741C15.8689 17.767 16.1472 16.3582 16.142 14.9353C16.142 13.8703 15.6127 12.6554 14.9168 12.6554C14.2208 12.6554 13.6935 13.8703 13.6935 14.9353C13.6935 16.9602 14.2208 18.8757 15.1579 20.2891C16.046 21.6255 17.1967 22.3443 18.3965 22.3443C19.5963 22.3443 20.749 21.6012 21.6351 20.2891C22.5702 18.8717 23.0995 16.9683 23.0995 14.9353C23.0995 12.9024 22.5742 11.0051 21.6351 9.58769C21.3672 9.17109 21.0438 8.79551 20.6745 8.47199C20.6427 8.4355 20.6232 8.38932 20.6189 8.34038C20.6147 8.29145 20.6259 8.24242 20.651 8.20067C20.6745 8.17435 20.7 8.15005 20.7235 8.15005L21.8998 7.60536C21.9325 7.58708 21.9706 7.58193 22.0068 7.5909C22.043 7.59987 22.0747 7.62232 22.0958 7.65395C22.3949 7.96753 22.6684 8.30616 22.9133 8.66638C24.0405 10.3511 24.6639 12.5825 24.6639 14.9434C24.6639 17.3044 24.0621 19.552 22.9349 21.2367Z" fill="#A466FF"/>
</svg>
