<svg xmlns="http://www.w3.org/2000/svg" width="135" height="20" fill="none"><g clip-path="url(#a)"><mask id="b" width="135" height="20" x="0" y="0" maskUnits="userSpaceOnUse" style="mask-type:luminance"><path fill="#fff" d="M134.54 0H0v19.313h134.54z"/></mask><g fill="#fff" mask="url(#b)"><path d="M58.717 19.313q-1.54 0-2.82-.526a6.5 6.5 0 0 1-2.18-1.434 6.3 6.3 0 0 1-1.395-2.157 7.2 7.2 0 0 1-.496-2.67c0-.947.174-1.869.523-2.71a6.7 6.7 0 0 1 1.436-2.184 6.8 6.8 0 0 1 2.154-1.46 6.6 6.6 0 0 1 2.676-.54q1.438.001 2.677.5a6.3 6.3 0 0 1 2.127 1.395 6.5 6.5 0 0 1 1.396 2.131q.51 1.237.51 2.683v1.105H54.517q.286 1.526 1.383 2.447t2.82.921q1.331 0 2.31-.644a4.2 4.2 0 0 0 1.501-1.724l2.298 1.289a6.8 6.8 0 0 1-2.389 2.604q-1.526.974-3.72.974zm-.105-11.208q-1.462 0-2.52.816a4.1 4.1 0 0 0-1.449 2.132h7.832q-.313-1.42-1.332-2.184-1.018-.763-2.532-.763zm39.113 11.208q-1.54 0-2.82-.526a6.5 6.5 0 0 1-2.18-1.434 6.3 6.3 0 0 1-1.395-2.157 7.2 7.2 0 0 1-.496-2.67c0-.947.173-1.869.522-2.71a6.7 6.7 0 0 1 1.437-2.184 6.8 6.8 0 0 1 2.154-1.46 6.6 6.6 0 0 1 2.676-.54 7.1 7.1 0 0 1 2.676.5 6.3 6.3 0 0 1 2.128 1.395 6.5 6.5 0 0 1 1.396 2.131 7 7 0 0 1 .509 2.683v1.105H93.525q.285 1.526 1.383 2.447 1.096.921 2.82.921 1.331 0 2.31-.644a4.2 4.2 0 0 0 1.501-1.724l2.298 1.289a6.8 6.8 0 0 1-2.389 2.604q-1.527.974-3.72.974zm-.103-11.208q-1.463 0-2.52.816a4.1 4.1 0 0 0-1.45 2.132h7.832q-.313-1.42-1.332-2.184-1.017-.763-2.532-.763zm15.115 11.196q-1.54 0-2.82-.526a6.5 6.5 0 0 1-2.179-1.434 6.3 6.3 0 0 1-1.398-2.157 7.2 7.2 0 0 1-.495-2.67c0-.947.173-1.869.522-2.71a6.7 6.7 0 0 1 1.435-2.184 6.8 6.8 0 0 1 2.154-1.46 6.6 6.6 0 0 1 2.676-.539q1.436 0 2.676.5a6.3 6.3 0 0 1 2.128 1.394 6.5 6.5 0 0 1 1.396 2.132q.509 1.235.509 2.683v1.104h-10.808q.286 1.526 1.384 2.447 1.096.921 2.82.921 1.331 0 2.31-.644a4.24 4.24 0 0 0 1.501-1.724l2.298 1.29a6.8 6.8 0 0 1-2.389 2.604q-1.528.973-3.72.973m-.105-11.208q-1.462 0-2.52.816a4.1 4.1 0 0 0-1.449 2.132h7.832q-.313-1.42-1.332-2.184-1.018-.763-2.533-.762zm-69.034 8.642a4.04 4.04 0 0 0 2.91-1.226q.556-.573.866-1.355a4.5 4.5 0 0 0 .31-1.668q.001-.885-.31-1.656a4.1 4.1 0 0 0-.866-1.342 4.1 4.1 0 0 0-1.306-.9 4 4 0 0 0-1.604-.326c-.569 0-1.125.113-1.616.339a4.13 4.13 0 0 0-2.134 2.254 4.3 4.3 0 0 0-.31 1.63c0 .573.102 1.142.31 1.655q.31.77.854 1.342.544.574 1.28.913a3.8 3.8 0 0 0 1.616.338zm.415 2.554a5.8 5.8 0 0 1-2.47-.534 4.84 4.84 0 0 1-1.874-1.498v1.792h-2.716V0h2.742v7.742a5.3 5.3 0 0 1 1.85-1.46 5.5 5.5 0 0 1 2.444-.547c.88 0 1.656.156 2.43.47a6.2 6.2 0 0 1 2.057 1.354 6.6 6.6 0 0 1 1.422 2.138q.53 1.251.53 2.816c0 1.565-.181 1.98-.542 2.815a6.6 6.6 0 0 1-1.435 2.124 6.5 6.5 0 0 1-2.043 1.355 6.1 6.1 0 0 1-2.394.482zm39.926-2.893q.736-.338 1.28-.912a4.2 4.2 0 0 0 .854-1.342 4.4 4.4 0 0 0 .31-1.656c0-.59-.102-1.117-.31-1.63a4.13 4.13 0 0 0-2.134-2.255 3.8 3.8 0 0 0-1.617-.337 4.03 4.03 0 0 0-2.909 1.226q-.556.574-.865 1.342a4.4 4.4 0 0 0-.312 1.655q0 .886.312 1.669.31.783.865 1.355.556.574 1.306.9t1.603.326c.57 0 1.126-.114 1.617-.34Zm-4.422 2.41a6.5 6.5 0 0 1-2.043-1.354 6.6 6.6 0 0 1-1.436-2.124q-.541-1.251-.542-2.815c-.001-1.564.177-1.98.53-2.816a6.6 6.6 0 0 1 1.422-2.138 6.1 6.1 0 0 1 2.056-1.355 6.4 6.4 0 0 1 2.43-.47 5.64 5.64 0 0 1 2.446.548q1.124.548 1.85 1.46V0h2.741v19.05h-2.715v-1.794a4.86 4.86 0 0 1-1.874 1.499 5.8 5.8 0 0 1-2.47.534q-1.242 0-2.392-.482zM67.162 5.734h2.77v2.009a3.76 3.76 0 0 1 1.397-1.488q.88-.521 2.175-.521h1.527v2.661H73.09q-1.708 0-2.42.939-.712.94-.712 2.973l.013 6.742h-2.809V5.732zm60.694 2.886c2.108 0 3.821 1.728 3.821 3.851v6.578h2.864v-6.578c0-3.721-2.994-6.737-6.685-6.737-3.692 0-6.684 3.017-6.684 6.737v6.578h2.864v-6.578c0-2.123 1.713-3.85 3.82-3.85Zm-95.808 5.53a4.1 4.1 0 0 1-.867 1.356 4.04 4.04 0 0 1-2.91 1.226 3.9 3.9 0 0 1-1.617-.34 4.1 4.1 0 0 1-1.28-.911 4.2 4.2 0 0 1-.853-1.343 4.4 4.4 0 0 1-.311-1.656c0-.59.103-1.117.31-1.629a4.13 4.13 0 0 1 2.134-2.255 3.8 3.8 0 0 1 1.617-.338c.586 0 1.104.109 1.604.326a4.06 4.06 0 0 1 2.173 2.242 4.4 4.4 0 0 1 .31 1.656 4.5 4.5 0 0 1-.31 1.668v-.001Zm2.498-4.311a6.8 6.8 0 0 0-1.412-2.154 6.57 6.57 0 0 0-4.729-1.958q-1.4 0-2.617.521a6.8 6.8 0 0 0-2.137 1.437 6.6 6.6 0 0 0-1.438 2.154 6.9 6.9 0 0 0-.519 2.676q-.001 1.437.52 2.677a6.6 6.6 0 0 0 1.41 2.141 6.7 6.7 0 0 0 2.1 1.423 6.5 6.5 0 0 0 2.605.521q1.295 0 2.318-.508a4.7 4.7 0 0 0 1.698-1.423v1.701h2.72v-6.533q0-1.437-.52-2.677zm-19.948 8.224c-.26 0-.47.212-.47.474 0 .261.21.474.47.474s.471-.213.471-.474a.473.473 0 0 0-.47-.474Zm-.941 0c-.26 0-.47.212-.47.474 0 .261.21.474.47.474s.47-.213.47-.474a.473.473 0 0 0-.47-.474m2.825 0c-.26 0-.47.212-.47.474 0 .261.21.474.47.474s.47-.213.47-.474a.473.473 0 0 0-.47-.474m-.942 0c-.26 0-.47.212-.47.474 0 .261.21.474.47.474s.47-.213.47-.474a.473.473 0 0 0-.47-.474m-.942-.95c-.26 0-.47.213-.47.474 0 .262.21.475.47.475s.471-.213.471-.475a.473.473 0 0 0-.47-.474Zm-.941 0c-.26 0-.47.213-.47.474 0 .262.21.475.47.475s.47-.213.47-.475a.473.473 0 0 0-.47-.474m2.825 0c-.26 0-.47.213-.47.474 0 .262.21.475.47.475s.47-.213.47-.475a.473.473 0 0 0-.47-.474m-.942 0c-.26 0-.47.213-.47.474 0 .262.21.475.47.475s.47-.213.47-.475a.473.473 0 0 0-.47-.474m-.942-.951c-.26 0-.47.213-.47.474 0 .262.21.474.47.474s.471-.212.471-.474a.473.473 0 0 0-.47-.474Zm-.941 0c-.26 0-.47.213-.47.474 0 .262.21.474.47.474s.47-.212.47-.474a.473.473 0 0 0-.47-.474m2.825 0c-.26 0-.47.213-.47.474 0 .262.21.474.47.474s.47-.212.47-.474a.473.473 0 0 0-.47-.474m-.942 0c-.26 0-.47.213-.47.474 0 .262.21.474.47.474s.47-.212.47-.474a.473.473 0 0 0-.47-.474"/><path d="M14.598 15.215c-.26 0-.47.213-.47.474 0 .262.21.474.47.474s.471-.212.471-.474a.473.473 0 0 0-.47-.474Zm-.941 0c-.26 0-.47.213-.47.474 0 .262.21.474.47.474s.47-.212.47-.474a.473.473 0 0 0-.47-.474m2.825 0c-.26 0-.47.213-.47.474 0 .262.21.474.47.474s.47-.212.47-.474a.473.473 0 0 0-.47-.474m-.942 0c-.26 0-.47.213-.47.474 0 .262.21.474.47.474s.47-.212.47-.474a.473.473 0 0 0-.47-.474m-.942-.951c-.26 0-.47.212-.47.474 0 .261.21.474.47.474s.471-.213.471-.474a.473.473 0 0 0-.47-.474Zm-.941 0c-.26 0-.47.212-.47.474 0 .261.21.474.47.474s.47-.213.47-.474a.473.473 0 0 0-.47-.474m2.825 0c-.26 0-.47.212-.47.474 0 .261.21.474.47.474s.47-.213.47-.474a.473.473 0 0 0-.47-.474m-.942 0c-.26 0-.47.212-.47.474 0 .261.21.474.47.474s.47-.213.47-.474a.473.473 0 0 0-.47-.474"/><path d="M14.598 13.316c-.26 0-.47.213-.47.475 0 .261.21.474.47.474s.471-.213.471-.474a.473.473 0 0 0-.47-.475Zm-.941 0c-.26 0-.47.213-.47.475 0 .261.21.474.47.474s.47-.213.47-.474a.473.473 0 0 0-.47-.475m2.825 0c-.26 0-.47.213-.47.475 0 .261.21.474.47.474s.47-.213.47-.474a.473.473 0 0 0-.47-.475m-.942 0c-.26 0-.47.213-.47.475 0 .261.21.474.47.474s.47-.213.47-.474a.473.473 0 0 0-.47-.475m-.942-.951c-.26 0-.47.213-.47.474 0 .262.21.475.47.475s.471-.213.471-.475a.473.473 0 0 0-.47-.474Zm-.941 0c-.26 0-.47.213-.47.474 0 .262.21.475.47.475s.47-.213.47-.475a.473.473 0 0 0-.47-.474m2.825 0c-.26 0-.47.213-.47.474 0 .262.21.475.47.475s.47-.213.47-.475a.473.473 0 0 0-.47-.474m-.942 0c-.26 0-.47.213-.47.474 0 .262.21.475.47.475s.47-.213.47-.475a.473.473 0 0 0-.47-.474"/><path d="M14.598 11.418c-.26 0-.47.213-.47.474 0 .262.21.474.47.474s.471-.212.471-.474a.473.473 0 0 0-.47-.474Zm-.941 0c-.26 0-.47.213-.47.474 0 .262.21.474.47.474s.47-.212.47-.474a.473.473 0 0 0-.47-.474m2.825 0c-.26 0-.47.213-.47.474 0 .262.21.474.47.474s.47-.212.47-.474a.473.473 0 0 0-.47-.474m-.942 0c-.26 0-.47.213-.47.474 0 .262.21.474.47.474s.47-.212.47-.474a.473.473 0 0 0-.47-.474m-.942-.951c-.26 0-.47.213-.47.474 0 .262.21.474.47.474s.471-.212.471-.474a.473.473 0 0 0-.47-.474Zm-.941 0c-.26 0-.47.213-.47.474 0 .262.21.474.47.474s.47-.212.47-.474a.473.473 0 0 0-.47-.474m2.825 0c-.26 0-.47.213-.47.474 0 .262.21.474.47.474s.47-.212.47-.474a.473.473 0 0 0-.47-.474m-.942 0c-.26 0-.47.213-.47.474 0 .262.21.474.47.474s.47-.212.47-.474a.473.473 0 0 0-.47-.474"/><path d="M14.598 9.52c-.26 0-.47.212-.47.474 0 .261.21.474.47.474s.471-.213.471-.474a.473.473 0 0 0-.47-.474Zm-.941 0c-.26 0-.47.212-.47.474 0 .261.21.474.47.474s.47-.213.47-.474a.473.473 0 0 0-.47-.474m2.825 0c-.26 0-.47.212-.47.474 0 .261.21.474.47.474s.47-.213.47-.474a.473.473 0 0 0-.47-.474m-.942 0c-.26 0-.47.212-.47.474 0 .261.21.474.47.474s.47-.213.47-.474a.473.473 0 0 0-.47-.474m-.942-.95c-.26 0-.47.213-.47.475 0 .261.21.474.47.474s.471-.213.471-.474a.473.473 0 0 0-.47-.475Zm-.941 0c-.26 0-.47.213-.47.475 0 .261.21.474.47.474s.47-.213.47-.474a.473.473 0 0 0-.47-.475m2.825 0c-.26 0-.47.213-.47.475 0 .261.21.474.47.474s.47-.213.47-.474a.473.473 0 0 0-.47-.475m-.942 0c-.26 0-.47.213-.47.475 0 .261.21.474.47.474s.47-.213.47-.474a.473.473 0 0 0-.47-.475m-.942-.949c-.26 0-.47.213-.47.474 0 .262.21.475.47.475s.471-.213.471-.475a.473.473 0 0 0-.47-.474Zm-.941 0c-.26 0-.47.213-.47.474 0 .262.21.475.47.475s.47-.213.47-.475a.473.473 0 0 0-.47-.474m2.825 0c-.26 0-.47.213-.47.474 0 .262.21.475.47.475s.47-.213.47-.475a.473.473 0 0 0-.47-.474m-.942 0c-.26 0-.47.213-.47.474 0 .262.21.475.47.475s.47-.213.47-.475a.473.473 0 0 0-.47-.474m-.942-.949c-.26 0-.47.213-.47.474 0 .262.21.474.47.474s.471-.212.471-.474a.473.473 0 0 0-.47-.474Zm-.941 0c-.26 0-.47.213-.47.474 0 .262.21.474.47.474s.47-.212.47-.474a.473.473 0 0 0-.47-.474m2.825 0c-.26 0-.47.213-.47.474 0 .262.21.474.47.474s.47-.212.47-.474a.473.473 0 0 0-.47-.474m-.942 0c-.26 0-.47.213-.47.474 0 .262.21.474.47.474s.47-.212.47-.474a.473.473 0 0 0-.47-.474m-.942-.949c-.26 0-.47.212-.47.474 0 .261.21.474.47.474s.471-.213.471-.474a.473.473 0 0 0-.47-.474Zm-.941 0c-.26 0-.47.212-.47.474 0 .261.21.474.47.474s.47-.213.47-.474a.473.473 0 0 0-.47-.474m2.825 0c-.26 0-.47.212-.47.474 0 .261.21.474.47.474s.47-.213.47-.474a.473.473 0 0 0-.47-.474m-.942 0c-.26 0-.47.212-.47.474 0 .261.21.474.47.474s.47-.213.47-.474a.473.473 0 0 0-.47-.474m-.942-.95c-.26 0-.47.213-.47.475 0 .261.21.474.47.474s.471-.213.471-.474a.473.473 0 0 0-.47-.475Zm-.941 0c-.26 0-.47.213-.47.475 0 .261.21.474.47.474s.47-.213.47-.474a.473.473 0 0 0-.47-.475m2.825 0c-.26 0-.47.213-.47.475 0 .261.21.474.47.474s.47-.213.47-.474a.473.473 0 0 0-.47-.475m-.942 0c-.26 0-.47.213-.47.475 0 .261.21.474.47.474s.47-.213.47-.474a.473.473 0 0 0-.47-.475m-.942-.949c-.26 0-.47.213-.47.474 0 .262.21.475.47.475s.471-.213.471-.475a.473.473 0 0 0-.47-.474Zm-.941 0c-.26 0-.47.213-.47.474 0 .262.21.475.47.475s.47-.213.47-.475a.473.473 0 0 0-.47-.474m2.825 0c-.26 0-.47.213-.47.474 0 .262.21.475.47.475s.47-.213.47-.475a.473.473 0 0 0-.47-.474m-.942 0c-.26 0-.47.213-.47.474 0 .262.21.475.47.475s.47-.213.47-.475a.473.473 0 0 0-.47-.474m-.942-.949c-.26 0-.47.213-.47.474 0 .262.21.474.47.474s.471-.212.471-.474a.473.473 0 0 0-.47-.474Zm-.941 0c-.26 0-.47.213-.47.474 0 .262.21.474.47.474s.47-.212.47-.474a.473.473 0 0 0-.47-.474m2.825 0c-.26 0-.47.213-.47.474 0 .262.21.474.47.474s.47-.212.47-.474a.473.473 0 0 0-.47-.474m-.942 0c-.26 0-.47.213-.47.474 0 .262.21.474.47.474s.47-.212.47-.474a.473.473 0 0 0-.47-.474m-.942-.949c-.26 0-.47.212-.47.474s.21.474.47.474.471-.212.471-.474a.473.473 0 0 0-.47-.474Zm-.941 0c-.26 0-.47.212-.47.474s.21.474.47.474.47-.212.47-.474a.473.473 0 0 0-.47-.474m2.825 0c-.26 0-.47.212-.47.474s.21.474.47.474.47-.212.47-.474a.473.473 0 0 0-.47-.474m-.942 0c-.26 0-.47.212-.47.474s.21.474.47.474.47-.212.47-.474a.473.473 0 0 0-.47-.474M9.889 18.063a.47.47 0 0 0-.471.474c0 .261.211.474.47.474.26 0 .471-.213.471-.474a.473.473 0 0 0-.47-.474m.941-.95a.473.473 0 0 0-.47.474c0 .262.211.475.47.475.26 0 .472-.213.472-.475a.473.473 0 0 0-.471-.474Zm-.941 0a.473.473 0 0 0-.471.474c0 .262.211.475.47.475.26 0 .471-.213.471-.475a.473.473 0 0 0-.47-.474m.941-.951a.473.473 0 0 0-.47.474c0 .262.211.474.47.474a.473.473 0 0 0 0-.948m-.941 0a.473.473 0 0 0-.471.474c0 .262.211.474.47.474.26 0 .471-.212.471-.474a.473.473 0 0 0-.47-.474"/><path d="M11.772 16.162c-.26 0-.47.213-.47.474 0 .262.21.474.47.474s.47-.212.47-.474a.473.473 0 0 0-.47-.474m-.942-.947a.473.473 0 0 0-.47.474c0 .262.211.474.47.474a.473.473 0 0 0 0-.948m-.941 0a.473.473 0 0 0-.471.474c0 .262.211.474.47.474.26 0 .471-.212.471-.474a.473.473 0 0 0-.47-.474m2.826 0c-.26 0-.47.213-.47.474 0 .262.21.474.47.474s.47-.212.47-.474a.473.473 0 0 0-.47-.474"/><path d="M11.772 15.215c-.26 0-.47.213-.47.474 0 .262.21.474.47.474s.47-.212.47-.474a.473.473 0 0 0-.47-.474M10.83 4.773a.473.473 0 0 0-.47.475c0 .261.211.474.47.474.26 0 .472-.213.472-.474a.473.473 0 0 0-.471-.475Zm-.941 0a.473.473 0 0 0-.471.475c0 .261.211.474.47.474.26 0 .471-.213.471-.474a.473.473 0 0 0-.47-.475m2.826 0c-.26 0-.47.213-.47.475 0 .261.21.474.47.474s.47-.213.47-.474a.473.473 0 0 0-.47-.475"/><path d="M11.772 4.773c-.26 0-.47.213-.47.475 0 .261.21.474.47.474s.47-.213.47-.474a.473.473 0 0 0-.47-.475m-.942-.949a.473.473 0 0 0-.47.474c0 .262.211.475.47.475.26 0 .472-.213.472-.475a.473.473 0 0 0-.471-.474Zm-.941 0a.473.473 0 0 0-.471.474c0 .262.211.475.47.475.26 0 .471-.213.471-.475a.473.473 0 0 0-.47-.474m2.826 0c-.26 0-.47.213-.47.474 0 .262.21.475.47.475s.47-.213.47-.475a.473.473 0 0 0-.47-.474"/><path d="M11.772 3.824c-.26 0-.47.213-.47.474 0 .262.21.475.47.475s.47-.213.47-.475a.473.473 0 0 0-.47-.474m-.942-.949a.473.473 0 0 0-.47.474c0 .262.211.474.47.474.26 0 .472-.212.472-.474a.473.473 0 0 0-.471-.474Zm-.941 0a.473.473 0 0 0-.471.474c0 .262.211.474.47.474.26 0 .471-.212.471-.474a.473.473 0 0 0-.47-.474m2.826 0c-.26 0-.47.213-.47.474 0 .262.21.474.47.474s.47-.212.47-.474a.473.473 0 0 0-.47-.474"/><path d="M11.772 2.875c-.26 0-.47.213-.47.474 0 .262.21.474.47.474s.47-.212.47-.474a.473.473 0 0 0-.47-.474m-.942-.949c-.259 0-.47.212-.47.474s.211.474.47.474c.26 0 .472-.212.472-.474a.473.473 0 0 0-.471-.474Zm-.941 0c-.26 0-.471.212-.471.474s.211.474.47.474c.26 0 .471-.212.471-.474a.473.473 0 0 0-.47-.474m2.826 0c-.26 0-.47.212-.47.474s.21.474.47.474.47-.212.47-.474a.473.473 0 0 0-.47-.474"/><path d="M11.772 1.926c-.26 0-.47.212-.47.474s.21.474.47.474.47-.212.47-.474a.473.473 0 0 0-.47-.474M7.064 18.063c-.26 0-.47.212-.47.474 0 .261.21.474.47.474s.47-.213.47-.474a.473.473 0 0 0-.47-.474m-.942 0c-.26 0-.47.212-.47.474 0 .261.21.474.47.474s.47-.213.47-.474a.473.473 0 0 0-.47-.474m2.826 0c-.26 0-.47.212-.47.474 0 .261.21.474.47.474s.47-.213.47-.474a.473.473 0 0 0-.47-.474m-.943 0c-.26 0-.47.212-.47.474 0 .261.21.474.47.474s.47-.213.47-.474a.473.473 0 0 0-.47-.474m-.941-.95c-.26 0-.47.213-.47.474 0 .262.21.475.47.475s.47-.213.47-.475a.473.473 0 0 0-.47-.474m-.942 0c-.26 0-.47.213-.47.474 0 .262.21.475.47.475s.47-.213.47-.475a.473.473 0 0 0-.47-.474m2.826 0c-.26 0-.47.213-.47.474 0 .262.21.475.47.475s.47-.213.47-.475a.473.473 0 0 0-.47-.474m-.943 0c-.26 0-.47.213-.47.474 0 .262.21.475.47.475s.47-.213.47-.475a.473.473 0 0 0-.47-.474m-.941-.951c-.26 0-.47.213-.47.474 0 .262.21.474.47.474s.47-.212.47-.474a.473.473 0 0 0-.47-.474m-.942 0c-.26 0-.47.213-.47.474 0 .262.21.474.47.474s.47-.212.47-.474a.473.473 0 0 0-.47-.474m2.826 0c-.26 0-.47.213-.47.474 0 .262.21.474.47.474s.47-.212.47-.474a.473.473 0 0 0-.47-.474m-.943 0c-.26 0-.47.213-.47.474 0 .262.21.474.47.474s.47-.212.47-.474a.473.473 0 0 0-.47-.474"/><path d="M7.064 15.215c-.26 0-.47.213-.47.474 0 .262.21.474.47.474s.47-.212.47-.474a.473.473 0 0 0-.47-.474m-.942 0c-.26 0-.47.213-.47.474 0 .262.21.474.47.474s.47-.212.47-.474a.473.473 0 0 0-.47-.474m2.826 0c-.26 0-.47.213-.47.474 0 .262.21.474.47.474s.47-.212.47-.474a.473.473 0 0 0-.47-.474m-.943 0c-.26 0-.47.213-.47.474 0 .262.21.474.47.474s.47-.212.47-.474a.473.473 0 0 0-.47-.474M7.064 4.773c-.26 0-.47.213-.47.475 0 .261.21.474.47.474s.47-.213.47-.474a.473.473 0 0 0-.47-.475m-.942 0c-.26 0-.47.213-.47.475 0 .261.21.474.47.474s.47-.213.47-.474a.473.473 0 0 0-.47-.475m2.826 0c-.26 0-.47.213-.47.475 0 .261.21.474.47.474s.47-.213.47-.474a.473.473 0 0 0-.47-.475m-.943 0c-.26 0-.47.213-.47.475 0 .261.21.474.47.474s.47-.213.47-.474a.473.473 0 0 0-.47-.475m-.941-.949c-.26 0-.47.213-.47.474 0 .262.21.475.47.475s.47-.213.47-.475a.473.473 0 0 0-.47-.474m-.942 0c-.26 0-.47.213-.47.474 0 .262.21.475.47.475s.47-.213.47-.475a.473.473 0 0 0-.47-.474m2.826 0c-.26 0-.47.213-.47.474 0 .262.21.475.47.475s.47-.213.47-.475a.473.473 0 0 0-.47-.474m-.943 0c-.26 0-.47.213-.47.474 0 .262.21.475.47.475s.47-.213.47-.475a.473.473 0 0 0-.47-.474m-.941-.949c-.26 0-.47.213-.47.474 0 .262.21.474.47.474s.47-.212.47-.474a.473.473 0 0 0-.47-.474m-.942 0c-.26 0-.47.213-.47.474 0 .262.21.474.47.474s.47-.212.47-.474a.473.473 0 0 0-.47-.474m2.826 0c-.26 0-.47.213-.47.474 0 .262.21.474.47.474s.47-.212.47-.474a.473.473 0 0 0-.47-.474m-.943 0c-.26 0-.47.213-.47.474 0 .262.21.474.47.474s.47-.212.47-.474a.473.473 0 0 0-.47-.474m-.941-.949c-.26 0-.47.212-.47.474s.21.474.47.474.47-.212.47-.474a.473.473 0 0 0-.47-.474m-.942 0c-.26 0-.47.212-.47.474s.21.474.47.474.47-.212.47-.474a.473.473 0 0 0-.47-.474m2.826 0c-.26 0-.47.212-.47.474s.21.474.47.474.47-.212.47-.474a.473.473 0 0 0-.47-.474m-.943 0c-.26 0-.47.212-.47.474s.21.474.47.474.47-.212.47-.474a.473.473 0 0 0-.47-.474M3.297 18.063c-.26 0-.47.212-.47.474 0 .261.21.474.47.474s.47-.213.47-.474a.473.473 0 0 0-.47-.474m1.883 0a.47.47 0 0 0-.47.474c0 .261.211.474.47.474.26 0 .471-.213.471-.474a.473.473 0 0 0-.47-.474Zm-.942 0c-.26 0-.47.212-.47.474 0 .261.21.474.47.474s.47-.213.47-.474a.473.473 0 0 0-.47-.474m-.941-.95c-.26 0-.47.213-.47.474 0 .262.21.475.47.475s.47-.213.47-.475a.473.473 0 0 0-.47-.474m-.943 0c-.26 0-.47.213-.47.474 0 .262.21.475.47.475s.47-.213.47-.475a.473.473 0 0 0-.47-.474m2.826 0a.473.473 0 0 0-.47.474c0 .262.211.475.47.475.26 0 .471-.213.471-.475a.473.473 0 0 0-.47-.474Zm-.942 0c-.26 0-.47.213-.47.474 0 .262.21.475.47.475s.47-.213.47-.475a.473.473 0 0 0-.47-.474m-.941-.951c-.26 0-.47.213-.47.474 0 .262.21.474.47.474s.47-.212.47-.474a.473.473 0 0 0-.47-.474m-.943 0c-.26 0-.47.213-.47.474 0 .262.21.474.47.474s.47-.212.47-.474a.473.473 0 0 0-.47-.474m2.826 0a.473.473 0 0 0-.47.474c0 .262.211.474.47.474.26 0 .471-.212.471-.474a.473.473 0 0 0-.47-.474Zm-.942 0c-.26 0-.47.213-.47.474 0 .262.21.474.47.474s.47-.212.47-.474a.473.473 0 0 0-.47-.474"/><path d="M3.297 15.215c-.26 0-.47.213-.47.474 0 .262.21.474.47.474s.47-.212.47-.474a.473.473 0 0 0-.47-.474m-.943 0c-.26 0-.47.213-.47.474 0 .262.21.474.47.474s.47-.212.47-.474a.473.473 0 0 0-.47-.474m2.826 0a.473.473 0 0 0-.47.474c0 .262.211.474.47.474.26 0 .471-.212.471-.474a.473.473 0 0 0-.47-.474Zm-.942 0c-.26 0-.47.213-.47.474 0 .262.21.474.47.474s.47-.212.47-.474a.473.473 0 0 0-.47-.474m-.941-.951c-.26 0-.47.212-.47.474 0 .261.21.474.47.474s.47-.213.47-.474a.473.473 0 0 0-.47-.474m-.943 0c-.26 0-.47.212-.47.474 0 .261.21.474.47.474s.47-.213.47-.474a.473.473 0 0 0-.47-.474"/><path d="M3.297 13.316c-.26 0-.47.213-.47.475 0 .261.21.474.47.474s.47-.213.47-.474a.473.473 0 0 0-.47-.475m-.943 0c-.26 0-.47.213-.47.475 0 .261.21.474.47.474s.47-.213.47-.474a.473.473 0 0 0-.47-.475m.943-.951c-.26 0-.47.213-.47.474 0 .262.21.475.47.475s.47-.213.47-.475a.473.473 0 0 0-.47-.474m-.943 0c-.26 0-.47.213-.47.474 0 .262.21.475.47.475s.47-.213.47-.475a.473.473 0 0 0-.47-.474"/><path d="M3.297 11.418c-.26 0-.47.213-.47.474 0 .262.21.474.47.474s.47-.212.47-.474a.473.473 0 0 0-.47-.474m-.943 0c-.26 0-.47.213-.47.474 0 .262.21.474.47.474s.47-.212.47-.474a.473.473 0 0 0-.47-.474m.943-.951c-.26 0-.47.213-.47.474 0 .262.21.474.47.474s.47-.212.47-.474a.473.473 0 0 0-.47-.474m-.943 0c-.26 0-.47.213-.47.474 0 .262.21.474.47.474s.47-.212.47-.474a.473.473 0 0 0-.47-.474"/><path d="M3.297 9.52c-.26 0-.47.212-.47.474 0 .261.21.474.47.474s.47-.213.47-.474a.473.473 0 0 0-.47-.474m-.943 0c-.26 0-.47.212-.47.474 0 .261.21.474.47.474s.47-.213.47-.474a.473.473 0 0 0-.47-.474m.943-.95c-.26 0-.47.213-.47.475 0 .261.21.474.47.474s.47-.213.47-.474a.473.473 0 0 0-.47-.475m-.943 0c-.26 0-.47.213-.47.475 0 .261.21.474.47.474s.47-.213.47-.474a.473.473 0 0 0-.47-.475m.943-.949c-.26 0-.47.213-.47.474 0 .262.21.475.47.475s.47-.213.47-.475a.473.473 0 0 0-.47-.474m-.943 0c-.26 0-.47.213-.47.474 0 .262.21.475.47.475s.47-.213.47-.475a.473.473 0 0 0-.47-.474m.943-.949c-.26 0-.47.213-.47.474 0 .262.21.474.47.474s.47-.212.47-.474a.473.473 0 0 0-.47-.474m-.943 0c-.26 0-.47.213-.47.474 0 .262.21.474.47.474s.47-.212.47-.474a.473.473 0 0 0-.47-.474m.943-.949c-.26 0-.47.212-.47.474 0 .261.21.474.47.474s.47-.213.47-.474a.473.473 0 0 0-.47-.474m-.943 0c-.26 0-.47.212-.47.474 0 .261.21.474.47.474s.47-.213.47-.474a.473.473 0 0 0-.47-.474m.943-.95c-.26 0-.47.213-.47.475 0 .261.21.474.47.474s.47-.213.47-.474a.473.473 0 0 0-.47-.475m1.883 0a.473.473 0 0 0-.47.475c0 .261.211.474.47.474.26 0 .471-.213.471-.474a.473.473 0 0 0-.47-.475Zm-.942 0c-.26 0-.47.213-.47.475 0 .261.21.474.47.474s.47-.213.47-.474a.473.473 0 0 0-.47-.475m.942-.949a.473.473 0 0 0-.47.474c0 .262.211.475.47.475.26 0 .471-.213.471-.475a.473.473 0 0 0-.47-.474Zm-.942 0c-.26 0-.47.213-.47.474 0 .262.21.475.47.475s.47-.213.47-.475a.473.473 0 0 0-.47-.474m.942-.949a.473.473 0 0 0-.47.474c0 .262.211.474.47.474.26 0 .471-.212.471-.474a.473.473 0 0 0-.47-.474ZM1.413 16.162c-.26 0-.47.213-.47.474 0 .262.21.474.47.474s.47-.212.47-.474a.473.473 0 0 0-.47-.474"/><path d="M1.413 15.215c-.26 0-.47.213-.47.474 0 .262.21.474.47.474s.47-.212.47-.474a.473.473 0 0 0-.47-.474m-.943 0a.473.473 0 0 0-.47.474c0 .262.211.474.47.474.26 0 .471-.212.471-.474a.473.473 0 0 0-.47-.474Zm.943-.951c-.26 0-.47.212-.47.474 0 .261.21.474.47.474s.47-.213.47-.474a.473.473 0 0 0-.47-.474m-.943 0a.47.47 0 0 0-.47.474c0 .261.211.474.47.474.26 0 .471-.213.471-.474a.473.473 0 0 0-.47-.474Z"/><path d="M1.413 13.316c-.26 0-.47.213-.47.475 0 .261.21.474.47.474s.47-.213.47-.474a.473.473 0 0 0-.47-.475m-.943 0a.473.473 0 0 0-.47.475c0 .261.211.474.47.474.26 0 .471-.213.471-.474a.473.473 0 0 0-.47-.475Zm.943-.951c-.26 0-.47.213-.47.474 0 .262.21.475.47.475s.47-.213.47-.475a.473.473 0 0 0-.47-.474m-.943 0a.473.473 0 0 0-.47.474c0 .262.211.475.47.475.26 0 .471-.213.471-.475a.473.473 0 0 0-.47-.474Z"/><path d="M1.413 11.418c-.26 0-.47.213-.47.474 0 .262.21.474.47.474s.47-.212.47-.474a.473.473 0 0 0-.47-.474m-.943 0a.473.473 0 0 0-.47.474c0 .262.211.474.47.474.26 0 .471-.212.471-.474a.473.473 0 0 0-.47-.474Zm.943-.951c-.26 0-.47.213-.47.474 0 .262.21.474.47.474s.47-.212.47-.474a.473.473 0 0 0-.47-.474m-.943 0a.473.473 0 0 0-.47.474c0 .262.211.474.47.474.26 0 .471-.212.471-.474a.473.473 0 0 0-.47-.474Z"/><path d="M1.413 9.52c-.26 0-.47.212-.47.474 0 .261.21.474.47.474s.47-.213.47-.474a.473.473 0 0 0-.47-.474m-.943 0a.47.47 0 0 0-.47.474c0 .261.211.474.47.474.26 0 .471-.213.471-.474a.473.473 0 0 0-.47-.474Zm.943-.95c-.26 0-.47.213-.47.475 0 .261.21.474.47.474s.47-.213.47-.474a.473.473 0 0 0-.47-.475m-.943 0a.473.473 0 0 0-.47.475c0 .261.211.474.47.474.26 0 .471-.213.471-.474a.473.473 0 0 0-.47-.475Zm.943-.949c-.26 0-.47.213-.47.474 0 .262.21.475.47.475s.47-.213.47-.475a.473.473 0 0 0-.47-.474m-.943 0a.473.473 0 0 0-.47.474c0 .262.211.475.47.475.26 0 .471-.213.471-.475a.473.473 0 0 0-.47-.474Zm.943-.949c-.26 0-.47.213-.47.474 0 .262.21.474.47.474s.47-.212.47-.474a.473.473 0 0 0-.47-.474"/></g></g><defs><clipPath id="a"><path fill="#fff" d="M0 0h135v20H0z"/></clipPath></defs></svg>