<svg xmlns="http://www.w3.org/2000/svg" viewBox="0 0 40 40" fill="none">
  <rect x="1" y="1" width="38" height="38" rx="9" stroke="#252b38" stroke-width="1.5"/>
  <line x1="8" y1="28" x2="32" y2="28" stroke="#252b38" stroke-width="0.75" stroke-linecap="round"/>
  <line x1="11" y1="11" x2="11" y2="29" stroke="#252b38" stroke-width="0.75" stroke-linecap="round" opacity="0.55"/>
  <path d="M11 24.5 C14.5 17.5, 17 17.5, 20 21 C23 24.5, 25.5 24.5, 29 17.5" stroke="#3da5f4" stroke-width="1.75" stroke-linecap="round" fill="none"/>
  <circle cx="14.5" cy="20.5" r="1.6" fill="#c5ccd6"/>
  <circle cx="20" cy="21" r="1.6" fill="#3da5f4"/>
  <circle cx="25.5" cy="20.5" r="1.6" fill="#c5ccd6"/>
  <path d="M27.5 12.5 L27.5 15.5 M26 14 L29 14" stroke="#8b939e" stroke-width="0.9" stroke-linecap="round"/>
  <path d="M31 12.5 L31 15.5" stroke="#3da5f4" stroke-width="0.9" stroke-linecap="round" opacity="0.85"/>
  <path d="M8.5 13 C8.5 11.2, 9.6 10, 10.8 10 C12 10, 13 11.2, 13 13 C13 14.8, 12 16, 10.8 16 C9.6 16, 8.5 14.8, 8.5 13" stroke="#8b939e" stroke-width="0.85" stroke-linecap="round" fill="none" opacity="0.7"/>
</svg>
